<svg xmlns="http://www.w3.org/2000/svg" viewBox="0 0 1987.58 1581"><g id="fa3e44f3-21af-4626-ba8f-2733a5edace2" data-name="map"><polygon points="581.56 1246.87 515.86 1219.15 356.71 1108.27 262.26 1108.27 235.56 1074.38 247.88 1015.86 199.63 975.82 127.76 972.74 104.14 953.23 91.82 899.85 19.95 868.02 19.95 809.49 2.5 753.02 26.11 721.2 229.4 716.06 322.83 689.37 230.43 593.88 327.97 557.95 368.01 454.25 459.39 519.96 481.97 221.19 349.53 221.19 204.76 170.88 181.15 88.74 193.47 57.94 266.36 57.94 386.49 76.42 488.13 80.53 510.72 26.11 574.38 2.5 662.67 2.5 794.09 53.84 848.51 43.57 907.03 69.24 940.91 115.44 918.33 173.96 822.84 258.15 850.56 365.95 886.5 427.56 1008.68 552.82 1255.09 802.31 1258.17 882.39 1227.37 932.7 1258.17 954.26 1358.78 952.21 1392.66 989.17 1477.88 989.17 1539.48 1006.62 1567.21 1036.4 1809.51 1034.34 1871.11 990.2 1910.13 988.14 1985.08 943.99 1985.08 1061.04 1953.25 1063.09 1913.21 1108.27 1853.66 1324.9 1782.82 1327.98 1695.55 1381.37 1617.52 1475.83 1502.52 1461.45 1411.15 1376.24 1354.68 1394.72 1311.56 1578.5 1273.57 1550.78 1263.3 1500.47 1267.41 1377.27 1188.35 1355.7 851.59 1354.68 686.29 1347.49 677.05 1312.58 581.56 1246.87" fill="#e6e6e6" stroke="#d2d2d2" stroke-linejoin="round" stroke-width="5"/></g><g id="e833b79d-99d4-4bc8-957b-43a39b87a28f" data-name="dot"><circle cx="659.79" cy="936.5" r="5" fill="red"/><circle cx="1051.04" cy="1046.78" r="5" fill="red"/></g></svg>