<svg id="a3d61532-71bd-4e2d-9cd5-bb7b9ef1f65d" data-name="pin" xmlns="http://www.w3.org/2000/svg" viewBox="0 0 227 409.98"><path d="M250,45A113.58,113.58,0,0,0,142.54,195.14l.83,2.36a.49.49,0,0,1,0,.11l91.42,246.5c2.58,5.82,8.4,10.88,15.17,10.88s12.59-5.07,15.17-10.88l91.42-246.52,0-.08.84-2.37A113.58,113.58,0,0,0,250,45Zm0,151.39a37.79,37.79,0,1,1,37.79-37.79A37.79,37.79,0,0,1,250,196.4Z" transform="translate(-136.5 -45.01)" fill="#f53232"/><g id="a93dcb96-6fe2-4e21-b59e-45ebe40ac629" data-name="Layer 6"><circle cx="113.5" cy="113.6" r="37.79" fill="#ebebeb"/></g></svg>