<svg id="f2993763-8af3-4e1c-9e90-537fd45845dc" data-name="clinic" xmlns="http://www.w3.org/2000/svg" viewBox="0 0 500 500"><g id="ac558b63-996b-479f-b4ed-9c7df0e7f662" data-name="Layer 3"><path d="M395.59,207.5l-143-106.65a4.32,4.32,0,0,0-5.14,0l-143,106.65a4.31,4.31,0,0,0,2.57,7.76h23V385.65A14.34,14.34,0,0,0,144.34,400h14.35V328.26A4.3,4.3,0,0,1,163,324h40.18a4.31,4.31,0,0,1,4.3,4.31V400H354.65A14.34,14.34,0,0,0,369,385.65V215.26h24A4.31,4.31,0,0,0,395.59,207.5Zm-55.7,88.89H300.07v39.82H273.53V296.39H233.71V269.85h39.82V230h26.54v39.82h39.82Z" fill="#0a0a0a"/></g></svg>