<svg id="b5a74ed0-0ee1-4cae-9741-9b77a700b6f2" data-name="clinic" xmlns="http://www.w3.org/2000/svg" viewBox="0 0 290 409.99"><path d="M370,45H130a25,25,0,0,0-25,25V330a25,25,0,0,0,25,25h71.78l33.05,89.11c2.58,5.82,8.4,10.88,15.17,10.88s12.59-5.07,15.17-10.88L298.22,355H370a25,25,0,0,0,25-25V70A25,25,0,0,0,370,45Z" transform="translate(-105 -45)" fill="#f53232"/><g id="be33380c-79c0-4963-b043-d114fb37cf04" data-name="Layer 3"><path d="M350.82,160.3,251.15,86a3,3,0,0,0-3.59,0L147.89,160.3a3,3,0,0,0,1.79,5.4h16V284.46a10,10,0,0,0,10,10h10v-50a3,3,0,0,1,3-3h28a3,3,0,0,1,3,3v50H322.29a10,10,0,0,0,10-10V165.7H349A3,3,0,0,0,350.82,160.3ZM312,222.25H284.25V250h-18.5V222.25H238v-18.5h27.75V176h18.5v27.75H312Z" transform="translate(-105 -45)" fill="#ebebeb"/></g></svg>