<svg xmlns="http://www.w3.org/2000/svg" viewBox="0 0 500 500"><g id="be4d50a5-93d9-458b-9b4b-d1c610320561" data-name="contact"><path d="M327.45,408.54l-37.85-29a10,10,0,0,1,1.69-16.93l38.33-18.7A10,10,0,0,1,344,353l-.47,47.67A10,10,0,0,1,327.45,408.54Z" fill="#0a0a0a"/></g><g id="b531ea7f-e169-4999-8030-5b5af6a56d61" data-name="Layer 2"><path d="M250,115c-82.84,0-150,60.44-150,135s67.16,135,150,135,150-60.44,150-135S332.84,115,250,115ZM172.5,275a25,25,0,1,1,25-25A25,25,0,0,1,172.5,275Zm77.5,0a25,25,0,1,1,25-25A25,25,0,0,1,250,275Zm77.5,0a25,25,0,1,1,25-25A25,25,0,0,1,327.5,275Z" fill="#0a0a0a"/></g></svg>