<svg id="a9cbb7eb-018f-4fd1-a095-122198a05aa1" data-name="news" xmlns="http://www.w3.org/2000/svg" viewBox="0 0 500 500"><path d="M385,125H115a15,15,0,0,0-15,15V300l75,75H385a15,15,0,0,0,15-15V140A15,15,0,0,0,385,125ZM360,332.5a5,5,0,0,1-5,5H235a5,5,0,0,1-5-5v-15a5,5,0,0,1,5-5H355a5,5,0,0,1,5,5Zm0-50a5,5,0,0,1-5,5H145a5,5,0,0,1-5-5v-15a5,5,0,0,1,5-5H355a5,5,0,0,1,5,5Zm0-50a5,5,0,0,1-5,5H175a5,5,0,0,1-5-5v-15a5,5,0,0,1,5-5H355a5,5,0,0,1,5,5Zm0-50a5,5,0,0,1-5,5H145a5,5,0,0,1-5-5v-15a5,5,0,0,1,5-5H355a5,5,0,0,1,5,5Z" fill="#0a0a0a"/></svg>