<svg id="ace9d6ff-1a64-400b-95b3-c3b754888bab" data-name="results" xmlns="http://www.w3.org/2000/svg" viewBox="0 0 500 500"><path d="M360,130H310V115a15,15,0,0,0-15-15H205a15,15,0,0,0-15,15v15H140a15,15,0,0,0-15,15V385a15,15,0,0,0,15,15H360a15,15,0,0,0,15-15V145A15,15,0,0,0,360,130ZM165,250.5v-15a5,5,0,0,1,5-5H280a5,5,0,0,1,5,5v15a5,5,0,0,1-5,5H170A5,5,0,0,1,165,250.5Zm162.34,48.84-53,53a12.51,12.51,0,0,1-17.68,0l-26-26a12.5,12.5,0,0,1,17.68-17.68l17.16,17.16,44.16-44.16a12.5,12.5,0,0,1,17.68,17.68ZM335,200.5a5,5,0,0,1-5,5H170a5,5,0,0,1-5-5v-15a5,5,0,0,1,5-5H330a5,5,0,0,1,5,5Z" fill="#0a0a0a"/></svg>